Coordinates
version=1
nRows=8
nColumns=36
inDegrees=yes

Units are S.I. units (second, meters, Newtons, ...)
Angles are in degrees.

endheader
time	pelvis_tilt	pelvis_list	pelvis_rotation	pelvis_tx	pelvis_ty	pelvis_tz	hip_flexion_r	hip_adduction_r	hip_rotation_r	knee_angle_r	ankle_angle_r	subtalar_angle_r	hip_flexion_l	hip_adduction_l	hip_rotation_l	knee_angle_l	ankle_angle_l	subtalar_angle_l	lumbar_extension	lumbar_bending	lumbar_rotation	arm_flex_r	arm_add_r	arm_rot_r	elbow_flex_r	pro_sup_r	wrist_flex_r	wrist_dev_r	arm_flex_l	arm_add_l	arm_rot_l	elbow_flex_l	pro_sup_l	wrist_flex_l	wrist_dev_l
      0.95000000	     -0.02801461	     -1.39963948	      7.66725911	     -1.02620053	      0.92802108	     -0.17912269	      1.67197965	      5.65294638	     -6.06515057	    -17.17516503	     10.06866590	     -1.96362763	     26.03073660	      2.28257076	      5.12160666	    -51.15708036	      2.06380447	     -2.40351696	     -7.91567836	      3.73767008	      1.07057572	     -5.45209664	    -21.44883670	     11.19094936	     34.24692105	     86.51662706	      0.00000000	      0.00000000	     -4.15798557	    -15.20475815	     15.95251536	     23.61045733	     86.51662706	      0.00000000	      0.00000000
      0.96000000	      0.31622607	     -1.30464125	      7.73131767	     -1.01486145	      0.92787640	     -0.17952962	      0.06363738	      5.72592027	     -6.14619993	    -16.34967311	     10.29767124	     -1.64280130	     26.15986364	      2.34155089	      4.95360139	    -48.25085091	      2.02345743	     -3.67713637	     -8.34570968	      3.66938882	      1.40391230	     -5.14666995	    -21.66535071	     11.18093209	     34.66669528	     86.51662706	      0.00000000	      0.00000000	     -4.17200363	    -15.14051908	     15.78892347	     23.31603828	     86.51662706	      0.00000000	      0.00000000
      0.97000000	      0.59116900	     -1.22564534	      7.79667656	     -1.00355323	      0.92738442	     -0.17999285	     -1.44982832	      5.80083206	     -6.19559006	    -15.56628502	     10.60212478	     -1.39127428	     26.28129340	      2.42609431	      4.89521960	    -45.18640974	      1.85647003	     -4.97352438	     -8.71944226	      3.61763078	      1.72763451	     -4.85202657	    -21.87227538	     11.12031085	     35.02489777	     86.51662706	      0.00000000	      0.00000000	     -4.20400048	    -15.07886288	     15.63069496	     23.08232802	     86.51662706	      0.00000000	      0.00000000
      0.98000000	      0.81074056	     -1.16802738	      7.86263765	     -0.99224672	      0.92658238	     -0.18050458	     -2.87928162	      5.88506537	     -6.22622827	    -14.83468748	     10.96413111	     -1.18399212	     26.38391675	      2.51734463	      4.92689360	    -41.98694383	      1.62999819	     -6.21821458	     -9.04276040	      3.58537757	      2.04206586	     -4.56511406	    -22.07246482	     11.02607726	     35.33329358	     86.51662706	      0.00000000	      0.00000000	     -4.24914445	    -15.01503994	     15.48174669	     22.89053019	     86.51662706	      0.00000000	      0.00000000
      0.99000000	      0.98950211	     -1.13659910	      7.92734174	     -0.98091373	      0.92551225	     -0.18106900	     -4.23321191	      5.98546931	     -6.25041193	    -14.16945099	     11.36333646	     -0.99366531	     26.45806101	      2.59413985	      5.02364333	    -38.68526160	      1.42260176	     -7.30607206	     -9.32083321	      3.57551233	      2.34770146	     -4.28337510	    -22.26846650	     10.91764975	     35.60514688	     86.51662706	      0.00000000	      0.00000000	     -4.30219497	    -14.94407133	     15.34759889	     22.71813605	     86.51662706	      0.00000000	      0.00000000
      1.00000000	      1.13797555	     -1.13360472	      7.98735149	     -0.96952474	      0.92422504	     -0.18169513	     -5.51377080	      6.10520464	     -6.27526158	    -13.58838786	     11.78130042	     -0.79748076	     26.50016491	      2.63872169	      5.15764955	    -35.32202764	      1.30431304	     -8.11731292	     -9.55631585	      3.58996107	      2.64496964	     -4.00575566	    -22.46167930	     10.81209209	     35.85200572	     86.51662706	      0.00000000	      0.00000000	     -4.35891381	    -14.86228840	     15.23468691	     22.54378454	     86.51662706	      0.00000000	      0.00000000
      1.01000000	      1.26063193	     -1.15854861	      8.03779825	     -0.95805162	      0.92276941	     -0.18238160	     -6.71621371	      6.24221969	     -6.30132377	    -13.11017277	     12.20321642	     -0.57998316	     26.51478490	      2.63988420	      5.29827772	    -31.94544745	      1.32369540	     -8.53548653	     -9.74894204	      3.62931822	      2.93393375	     -3.73288294	    -22.65221741	     10.72124696	     36.08206432	     86.51662706	      0.00000000	      0.00000000	     -4.41649906	    -14.76795762	     15.14967853	     22.35042613	     86.51662706	      0.00000000	      0.00000000
      1.02000000	      1.35685072	     -1.20941309	      8.07306066	     -0.94647821	      0.92116461	     -0.18311384	     -7.83077430	      6.38973273	     -6.32407468	    -12.75161906	     12.61766436	     -0.33311323	     26.51428976	      2.59411372	      5.41122139	    -28.61162344	      1.50232765	     -8.46590995	     -9.89622926	      3.69267964	      3.21410366	     -3.46669286	    -22.83917634	     10.65056568	     36.29982056	     86.51662706	      0.00000000	      0.00000000	     -4.47320244	    -14.66110649	     15.09884141	     22.12698772	     86.51662706	      0.00000000	      0.00000000
